PathFileType	4	(X/Y/Z)	/home/abdul/Desktop/myosuite/custom_workspace/IK/output/S11_12_2.trc
DataRate	CameraRate	NumFrames	NumMarkers	Units	OrigDataRate	OrigDataStartFrame	OrigNumFrames
200.0	200.0	50	3	mm	200.0	1313	1500
Frame#	Time	V_Shoulder			V_Elbow			V_Wrist		
		X1	Y1	Z1	X2	Y2	Z2	X3	Y3	Z3

1313	6.56	-117.89821651660442	560.0927807021416	275.90044213297654	-313.54712056293823	395.1847229034249	46.95554962315992	-208.85826450237857	163.06211060750297	71.62733607258755
1314	6.565	-118.0031458079767	560.1535022348157	275.70677264180364	-313.51390744965886	395.39666172630257	46.525350932898654	-209.069397961081	163.31161813934602	70.99108629402247
1315	6.57	-118.10444876017691	560.2171616396249	275.5156624869481	-313.483694164086	395.60777047950603	46.10574223907289	-209.28430321646516	163.56157215672562	70.36692143391949
1316	6.575	-118.20204698673314	560.2838297084531	275.32722590415113	-313.4563391654247	395.817986651503	45.696735146157664	-209.5025072835735	163.81186439097704	69.75496829018529
1317	6.58	-118.29586492583796	560.3535739441357	275.1415741037907	-313.4316925108725	396.02724328630643	45.298328802602214	-209.72352555690247	164.06238078931182	69.15534296207898
1318	6.585	-118.38582995209902	560.4264584121651	274.958815107219	-313.40959671145515	396.23546939485834	44.91051030153284	-209.94686387043583	164.3130020244614	68.56815090454062
1319	6.59	-118.47187248394914	560.5025436017067	274.77905358852814	-313.38988758511925	396.44259038068674	44.53325508511981	-210.1720205341307	164.56360403439865	67.99348697592468
1320	6.595	-118.55392608641806	560.5818862962013	274.60239072216996	-313.37239510383347	396.64852847763666	44.166527351245286	-210.39848833940664	164.81405858860495	67.43143547982609
1321	6.6	-118.63192756898432	560.6645394537856	274.4289240368425	-313.35694423159475	396.853203197423	43.810280461244126	-210.62575652653175	165.06423387721992	66.8820702018188
1322	6.605	-118.70581707824232	560.7505520977235	274.2587472760438	-313.34335575038165	397.0565317847182	43.46445734762599	-210.85331270716966	165.31399511930488	66.34545444204852
1323	6.61	-118.77553818513748	560.8399692169972	274.0919502656771	-313.3314470712628	397.25842967745746	43.12899092082203	-211.0806447357472	165.5632051863717	65.8216410447286
1324	6.615	-118.84103796654227	560.9328316771636	273.9286187890739	-313.32103302803137	397.45881097003746	42.803804474132086	-211.3072425237163	165.81172523727327	65.31067242568356
1325	6.62	-118.90226708096561	561.0291761415382	273.76883446978496	-313.3119266509141	397.6575888770808	42.48881208617714	-211.53259979121867	166.05941536052524	64.81258059916357
1326	6.625	-118.95917983820937	561.1290350027342	273.6126746624671	-313.3039399180816	397.8546761954566	42.183919020284094	-211.75621575110983	166.30613522012553	64.32738720521803
1327	6.63	-119.01173426280798	561.232436324534	273.46021235217404	-313.2968844828728	398.04998576227393	41.8890221203469	-211.97759672076018	166.55174470096324	63.85510353896485
1328	6.635	-119.05989215110982	561.3394037940405	273.3115160623354	-313.29057237483073	398.2434309066058	41.60401020281587	-212.1962576575203	166.7961045499584	63.3957305831249
1329	6.64	-119.10361912188215	561.4499566840055	273.1666497716839	-313.2848166728394	398.4349258927572	41.32876444456714	-212.41172361421525	167.03907700914863	62.94925904520677
1330	6.645	-119.1428846603457	561.564109825208	273.02567284036763	-313.2794321488403	398.6243863529563	41.063158766494325	-212.62353111150878	167.2805264370388	62.51566940072737
1331	6.65	-119.17766215556935	561.6818735887081	272.88863994545255	-313.2742358807967	398.81172970742693	40.807060212745185	-212.83122942446124	167.52031991465174	62.09493194383788
1332	6.655	-119.20792893117898	561.8032538777757	272.75560102599894	-313.2690478337636	398.9968755698892	40.56032932559557	-213.034381781079	167.7583278328639	61.68700684669314
1333	6.66	-119.23366626936088	561.9282521292557	272.6266012378612	-313.2636914081087	399.1797461366382	40.32282051601261	-213.23256647112703	167.9944244577747	61.29184422885594
1334	6.665	-119.25485942816279	562.0568653241045	272.50168091833365	-313.25799395411286	399.36026655746014	40.09438243000741	-213.4253778639378	168.22848847104413	60.909384237967075
1335	6.67	-119.27149765212214	562.1890860068028	272.3808755607323	-313.25178725235793	399.5383652867633	39.87485831091527	-213.6124273344054	168.4604034823353	60.539557142837786
1336	6.675	-119.28357417627383	562.324902313323	272.2642157989746	-313.2449079594863	399.71397441343174	39.66408635776876	-213.7933440967933	168.690058511218	60.182283440034894
1337	6.68	-119.2910862236151	562.4642980073087	272.15172740218145	-313.2371980190849	399.8870299680426	39.46190007994514	-213.9677759464125	168.91734843612136	59.83747397493053
1338	6.685	-119.29403499612715	562.6072525240983	272.04343127930036	-313.2285050376114	400.0574722062298	39.26812864827695	-214.13538990963582	169.14217440816816	59.505030078080644
1339	6.69	-119.29242565947722	562.7537410222079	271.93934349370846	-313.21868262543546	400.22524586712217	39.082597242810955	-214.2958728031075	169.36444422797956	59.184843717679264
1340	6.695	-119.28626732154562	562.9037344418757	271.8394752877284	-313.20759070321725	400.3903004059371	38.90512739738936	-214.44893170337969	169.5840726837996	58.87679766871078
1341	6.7	-119.2755730049444	563.0571995702509	271.7438331169501	-313.19509577398844	400.5525901999613	38.735537341206616	-214.5942943285591	169.80098184955864	58.580765699291405
1342	6.705	-119.26035961371319	563.2140991128018	271.6524186942242	-313.18107116143165	400.7120747273084	38.57364233746737	-214.731709333879	170.01510134176613	58.296612774554774
1343	6.71	-119.24064789439801	563.3743917705134	271.5652290431563	-313.1653972149801	400.86871871799804	38.41925501923639	-214.86094652341708	170.22636853439707	58.0241952782973
1344	6.715	-119.21646239173542	563.5380323224316	271.4822565609018	-313.1479614824733	401.0224922770585	38.272185722530565	-214.98179698046516	170.43472873120842	57.76336125245625
1345	6.72	-119.18783139918105	563.704971713115	271.4034890900254	-313.1286588512113	401.17337097951065	38.13224281665724	-215.09407311931662	170.64013529519292	57.51395065435091
1346	6.725	-119.15478690453654	563.8751571445528	271.3289099991642	-313.10739165834605	401.3213359372455	37.99923303175273	-215.19760866147308	170.84254973514376	57.27579563147407
1347	6.73	-119.11736453094242	564.0485321721086	271.2584982721965	-313.084069771635	401.466373837956	37.87296178342203	-215.29225853948236	171.0419417495616	57.04872081347955
1348	6.735	-119.0756034735155	564.2250368040571	271.1922286055951	-313.0586106416612	401.6084769564335	37.75323349432436	-215.37789873180722	171.23828922838788	56.832543620873196
1349	6.74	-119.0295464319205	564.4046076042874	271.13007151361177	-313.0309393266889	401.7476431386808	37.63985191249242	-215.4544260322866	171.43157821328936	56.627074589779056
1350	6.745	-118.97923953917284	564.5871777977544	271.07199344091595	-313.0009884913852	401.88387575942863	37.5326204261151	-215.52175775788825	171.6218028174489	56.43211771202292
1351	6.75	-118.92473228697747	564.7726773782748	271.0179568822838	-312.9686983806844	402.01718365377656	37.431342374456946	-215.57983139856685	171.80896510603606	56.24747078965062
1352	6.755	-118.866077447912	564.9610332182792	270.9679205089122	-312.9340167701139	402.14758102379915	37.335821354530665	-215.6286042131314	171.99307493873454	56.072925802881
1353	6.76	-118.80333099476589	565.1521691801408	270.92183930090874	-312.89689889392946	402.2750873210808	37.24586152308629	-215.66805277509462	172.17414977589328	55.908269290383615
1354	6.765	-118.73655201734891	565.3460062287287	270.87966468549047	-312.85730735243214	402.3997271062429	37.16126789342942	-215.6981724725223	172.35221445004123	55.75328274066921
1355	6.77	-118.66580263708035	565.5424625448455	270.84134468040685	-312.81521199985116	402.52152988663676	37.08184662653408	-215.71897696592544	172.5273009046648	55.60774299328922
1356	6.775	-118.59114791966793	565.7414536392371	270.8068240420852	-312.7705898141846	402.640529933458	37.00740531587366	-215.73049760824205	172.69944790228678	55.47142264845728
1357	6.78	-118.51265578618121	565.9428924668758	270.7760444179856	-312.72342475038806	402.7567660796267	36.93775326535572	-215.73278283093902	172.86870070401034	55.3440904836342
1358	6.785	-118.43039692281701	566.1466895412537	270.74894450263895	-312.6737075782945	402.8702814998465	36.87270175971542	-215.72589750023192	173.03511072279696	55.22551187555622
1359	6.79	-118.34444468964648	566.3527530484344	270.7254601968366	-312.6214357066312	402.981123474323	36.81206432669687	-215.70992224736688	173.1987351528391	55.115449226136604
1360	6.795	-118.2548750286232	566.5609889606459	270.7055247694289	-312.56661299448183	403.08934313767014	36.75565699033318	-215.68495277684093	173.3596365774574	55.01366239063239
1361	6.8	-118.16176637111978	566.7713011492204	270.6890690211913	-312.5092495515131	403.1949952145817	36.70329851462461	-215.6510991563528	173.51788255801023	54.91990910644243
1362	6.805	-118.0651995452471	566.98359149671	270.67602145021175	-312.44936152825505	403.2981377438763	36.65481063691011	-215.6084850921784	173.6735452063396	54.833945420888334
